<svg version="1.2" xmlns="http://www.w3.org/2000/svg" viewBox="0 0 1000 1003" width="1000" height="1003"><defs><clipPath clipPathUnits="userSpaceOnUse" id="cp1"><path d="m59.75 66.99h872v872.29h-872z"/></clipPath><clipPath clipPathUnits="userSpaceOnUse" id="cp2"><path d="m495.75 939.28c-241.11 0-436-194.96-436-436.14 0-241.19 194.89-436.15 436-436.15 241.11 0 436 194.96 436 436.15 0 241.18-194.89 436.14-436 436.14z"/></clipPath><clipPath clipPathUnits="userSpaceOnUse" id="cp3"><path d="m163.55 166.27h672.9v673.12h-672.9z"/></clipPath><clipPath clipPathUnits="userSpaceOnUse" id="cp4"><path d="m500 839.39c-186.06 0-336.45-150.44-336.45-336.56 0-186.11 150.39-336.56 336.45-336.56 186.06 0 336.45 150.45 336.45 336.56 0 186.12-150.39 336.56-336.45 336.56z"/></clipPath><linearGradient id="P" gradientUnits="userSpaceOnUse"/><radialGradient id="g1" cx="0" cy="0" r="1" href="#P" gradientTransform="matrix(951.631,0,0,951.631,163.547,166.269)"><stop stop-color="#cdffd8"/><stop offset=".01" stop-color="#ccfed9"/><stop offset=".02" stop-color="#ccfdd9"/><stop offset=".03" stop-color="#cbfcd9"/><stop offset=".04" stop-color="#cafcda"/><stop offset=".05" stop-color="#cafbda"/><stop offset=".07" stop-color="#c9fadb"/><stop offset=".08" stop-color="#c8f9db"/><stop offset=".09" stop-color="#c8f8dc"/><stop offset=".1" stop-color="#c7f7dc"/><stop offset=".11" stop-color="#c6f7dd"/><stop offset=".13" stop-color="#c6f6dd"/><stop offset=".14" stop-color="#c5f5de"/><stop offset=".15" stop-color="#c4f4de"/><stop offset=".16" stop-color="#c4f3de"/><stop offset=".17" stop-color="#c3f3df"/><stop offset=".18" stop-color="#c2f2df"/><stop offset=".2" stop-color="#c2f1e0"/><stop offset=".21" stop-color="#c1f0e0"/><stop offset=".22" stop-color="#c0efe1"/><stop offset=".23" stop-color="#c0eee1"/><stop offset=".24" stop-color="#bfeee2"/><stop offset=".25" stop-color="#beede2"/><stop offset=".26" stop-color="#beece2"/><stop offset=".27" stop-color="#bdece3"/><stop offset=".28" stop-color="#bdebe3"/><stop offset=".29" stop-color="#bdebe3"/><stop offset=".29" stop-color="#bceae4"/><stop offset=".3" stop-color="#bceae4"/><stop offset=".31" stop-color="#bbe9e4"/><stop offset=".32" stop-color="#bbe9e4"/><stop offset=".32" stop-color="#bae8e5"/><stop offset=".33" stop-color="#bae7e5"/><stop offset=".34" stop-color="#b9e7e5"/><stop offset=".35" stop-color="#b9e6e6"/><stop offset=".36" stop-color="#b8e6e6"/><stop offset=".36" stop-color="#b8e5e6"/><stop offset=".37" stop-color="#b8e5e7"/><stop offset=".38" stop-color="#b7e4e7"/><stop offset=".39" stop-color="#b7e4e7"/><stop offset=".39" stop-color="#b6e3e8"/><stop offset=".4" stop-color="#b6e3e8"/><stop offset=".41" stop-color="#b5e2e8"/><stop offset=".42" stop-color="#b5e1e8"/><stop offset=".43" stop-color="#b4e1e9"/><stop offset=".43" stop-color="#b4e0e9"/><stop offset=".44" stop-color="#b4e0e9"/><stop offset=".45" stop-color="#b3dfea"/><stop offset=".46" stop-color="#b3dfea"/><stop offset=".46" stop-color="#b2deea"/><stop offset=".47" stop-color="#b2deeb"/><stop offset=".48" stop-color="#b1ddeb"/><stop offset=".49" stop-color="#b1dceb"/><stop offset=".5" stop-color="#b0dceb"/><stop offset=".5" stop-color="#b0dbec"/><stop offset=".52" stop-color="#afdaec"/><stop offset=".53" stop-color="#afdaed"/><stop offset=".54" stop-color="#aed9ed"/><stop offset=".55" stop-color="#add8ee"/><stop offset=".56" stop-color="#add7ee"/><stop offset=".57" stop-color="#acd6ef"/><stop offset=".59" stop-color="#abd5ef"/><stop offset=".6" stop-color="#abd5f0"/><stop offset=".61" stop-color="#aad4f0"/><stop offset=".62" stop-color="#a9d3f0"/><stop offset=".63" stop-color="#a9d2f1"/><stop offset=".64" stop-color="#a8d2f1"/><stop offset=".65" stop-color="#a8d1f1"/><stop offset=".66" stop-color="#a7d1f2"/><stop offset=".66" stop-color="#a7d0f2"/><stop offset=".67" stop-color="#a6d0f2"/><stop offset=".68" stop-color="#a6cff3"/><stop offset=".69" stop-color="#a6cff3"/><stop offset=".7" stop-color="#a5cef3"/><stop offset=".7" stop-color="#a5cdf4"/><stop offset=".71" stop-color="#a4cdf4"/><stop offset=".72" stop-color="#a4ccf4"/><stop offset=".73" stop-color="#a3ccf4"/><stop offset=".73" stop-color="#a3cbf5"/><stop offset=".74" stop-color="#a2cbf5"/><stop offset=".75" stop-color="#a2caf5"/><stop offset=".76" stop-color="#a1c9f6"/><stop offset=".77" stop-color="#a1c9f6"/><stop offset=".78" stop-color="#a0c8f7"/><stop offset=".79" stop-color="#9fc7f7"/><stop offset=".8" stop-color="#9fc6f8"/><stop offset=".82" stop-color="#9ec5f8"/><stop offset=".82" stop-color="#9ec5f8"/><stop offset=".83" stop-color="#9dc4f9"/><stop offset=".84" stop-color="#9dc4f9"/><stop offset=".85" stop-color="#9cc3f9"/><stop offset=".86" stop-color="#9cc3fa"/><stop offset=".86" stop-color="#9bc2fa"/><stop offset=".87" stop-color="#9bc2fa"/><stop offset=".88" stop-color="#9ac1fb"/><stop offset=".89" stop-color="#9ac0fb"/><stop offset=".9" stop-color="#99bffb"/><stop offset=".91" stop-color="#99bffc"/><stop offset=".92" stop-color="#98befc"/><stop offset=".93" stop-color="#98befc"/><stop offset=".94" stop-color="#97bdfd"/><stop offset=".95" stop-color="#97bcfd"/><stop offset=".96" stop-color="#96bcfd"/><stop offset=".96" stop-color="#96bbfe"/><stop offset=".97" stop-color="#95bafe"/><stop offset=".98" stop-color="#95baff"/><stop offset=".99" stop-color="#94b9ff"/><stop offset="1" stop-color="#94b9ff"/></radialGradient><clipPath clipPathUnits="userSpaceOnUse" id="cp5"><path d="m163.55 166.27h672v672.23h-672z"/></clipPath><clipPath clipPathUnits="userSpaceOnUse" id="cp6"><path d="m499.55 838.5c-185.81 0-336-150.24-336-336.11 0-185.87 150.19-336.12 336-336.12 185.81 0 336 150.25 336 336.12 0 185.87-150.19 336.11-336 336.11z"/></clipPath><clipPath clipPathUnits="userSpaceOnUse" id="cp7"><path d="m376 448.15h240v112.27h-240z"/></clipPath><clipPath clipPathUnits="userSpaceOnUse" id="cp8"><path d="m374.8 365.45h43.87v48.02h-43.87z"/></clipPath><clipPath clipPathUnits="userSpaceOnUse" id="cp9"><path d="m392 280.32h224v61.13h-224z"/></clipPath><clipPath clipPathUnits="userSpaceOnUse" id="cp10"><path d="m389.33 280.32h227.47v61.13h-227.47z"/></clipPath><clipPath clipPathUnits="userSpaceOnUse" id="cp11"><path d="m429.53 321.72h148.86v62.1h-148.86z"/></clipPath><clipPath clipPathUnits="userSpaceOnUse" id="cp12"><path d="m429.74 383.28v-60.96l45.8 11.85q1.78 0.86 3.6 1.69c21.11 9.5 44.15 14.11 67.23 14.11 10.57 0 21.13-0.96 31.52-2.85v36.16z"/></clipPath></defs><style>.a{fill:#fff;stroke:#000;stroke-width:28}.b{fill:url(#g1)}.c{fill:none;stroke:#000;stroke-width:28}.d{fill:#fff}</style><g clip-path="url(#cp1)"><g clip-path="url(#cp2)"><path fill-rule="evenodd" class="a" d="m495.8 939.3c-241.2 0-436.1-195-436.1-436.2 0-241.2 194.9-436.1 436.1-436.1 241.1 0 436 194.9 436 436.1 0 241.2-194.9 436.2-436 436.2z"/></g></g><g clip-path="url(#cp3)"><g clip-path="url(#cp4)"><path class="b" d="m163.6 166.3h672.8v673.1h-672.8z"/></g></g><g clip-path="url(#cp5)"><g clip-path="url(#cp6)"><path fill-rule="evenodd" class="c" d="m499.6 838.5c-185.9 0-336-150.2-336-336.1 0-185.9 150.1-336.1 336-336.1 185.8 0 336 150.2 336 336.1 0 185.9-150.2 336.1-336 336.1z"/></g></g><path  d="m445.8 388.3v18.3c0 8.4 6.8 15.1 15.2 15.1h74.6c3 0 5.6 1.2 7.6 3.1 1.9 2 3.1 4.6 3.1 7.6v28.6c0 1.3 1 2.3 2.3 2.3 1.2 0 2.2-1 2.2-2.3v-28.6c0-8.4-6.8-15.2-15.2-15.2h-74.6c-3 0-5.6-1.1-7.6-3.1-1.9-1.9-3.1-4.6-3.1-7.5v-18.3c0-1.2-1-2.2-2.3-2.2-1.2 0-2.2 1-2.2 2.2z"/><path class="d" d="m380.3 458.5c0-3.3 2.7-6 6-6h219.3c3.4 0 6 2.7 6 6v93.7c0 3.4-2.6 6-6 6h-219.3c-3.3 0-6-2.6-6-6z"/><g clip-path="url(#cp7)"><path  d="m606 558.2v-2.2h-220c-1 0-1.8-0.4-2.5-1-0.6-0.6-1-1.5-1-2.4v-94.4c0-1 0.4-1.8 1-2.4 0.7-0.7 1.5-1 2.5-1h220c0.9 0 1.8 0.3 2.4 1 0.6 0.6 1 1.4 1 2.4v94.4c0 0.9-0.4 1.8-1 2.4-0.6 0.6-1.5 1-2.4 1v4.5c4.4 0 7.9-3.6 7.9-7.9v-94.4c0-4.4-3.5-7.9-7.9-7.9h-220c-4.4 0-8 3.5-8 7.9v94.4c0 4.3 3.6 7.9 8 7.9h220z"/></g><path  d="m394.3 464.8h17.3v13.9h-17.3z"/><path  d="m420.6 464.8h17.3v13.9h-17.3z"/><path  d="m447 464.8h17.3v13.9h-17.3z"/><path  d="m473.3 464.8h17.3v13.9h-17.3z"/><path  d="m499.7 464.8h17.3v13.9h-17.3z"/><path  d="m526 464.8h17.3v13.9h-17.3z"/><path  d="m394.3 487.8h17.3v13.9h-17.3z"/><path  d="m420.6 487.8h17.3v13.9h-17.3z"/><path  d="m447 487.8h17.3v13.9h-17.3z"/><path  d="m473.3 487.8h17.3v13.9h-17.3z"/><path  d="m499.7 487.8h17.3v13.9h-17.3z"/><path  d="m526 487.8h17.3v13.9h-17.3z"/><path  d="m552.4 487.8h17.3v13.9h-17.3z"/><path  d="m578.7 487.8h17.3v13.9h-17.3z"/><path  d="m394.3 510.7h17.3v13.9h-17.3z"/><path  d="m420.6 510.7h17.3v13.9h-17.3z"/><path  d="m447 510.7h17.3v13.9h-17.3z"/><path  d="m473.3 510.7h17.3v13.9h-17.3z"/><path  d="m499.7 510.7h17.3v13.9h-17.3z"/><path  d="m526 510.7h17.3v13.9h-17.3z"/><path  d="m552.4 510.7h17.3v13.9h-17.3z"/><path  d="m578.7 510.7h17.3v13.9h-17.3z"/><path  d="m394.3 533.6h17.3v14h-17.3z"/><path  d="m420.6 533.6h96.4v14h-96.4z"/><path  d="m526 533.6h17.3v14h-17.3z"/><path  d="m552.4 533.6h17.3v14h-17.3z"/><path  d="m578.7 533.6h17.3v14h-17.3z"/><path  d="m552.4 464.8h43.6v13.9h-43.6z"/><path class="d" d="m427.5 311.2h152.7v74.4h-152.7z"/><path  d="m427.5 385.6v2.2h152.7c0.6 0 1.2-0.2 1.6-0.6 0.4-0.5 0.6-1 0.6-1.6v-74.4c0-0.6-0.2-1.2-0.6-1.6-0.4-0.4-1-0.7-1.6-0.7h-152.7c-0.6 0-1.2 0.3-1.7 0.7-0.4 0.4-0.6 1-0.6 1.6v74.4c0 0.6 0.2 1.1 0.6 1.6 0.5 0.4 1.1 0.6 1.7 0.6v-2.2h2.2v-72.1h148.2v69.8h-150.4v2.3h2.2z"/><path  d="m393.4 310.7v62c0 1.3 1 2.3 2.3 2.3 1.2 0 2.3-1 2.3-2.3v-62c0-1.3-1.1-2.3-2.3-2.3-1.3 0-2.3 1-2.3 2.3z"/><path class="d" d="m395.7 410h18.4l-9.2-20.7-9.2-20.8-9.2 20.8-9.2 20.7z"/><g clip-path="url(#cp8)"><path  d="m395.7 410v2.3h18.4c0.7 0 1.4-0.4 1.9-1 0.4-0.7 0.4-1.5 0.1-2.2l-9.1-20.8-9.2-20.7c-0.4-0.8-1.2-1.4-2.1-1.4-0.9 0-1.7 0.6-2.1 1.4l-9.2 20.7-9.2 20.8c-0.3 0.7-0.2 1.5 0.2 2.2 0.4 0.6 1.2 1 1.9 1h18.4v-4.5h-14.9l7.8-17.6 7.1-16.1 7.1 16.1 7.8 17.6h-14.9z"/></g><path class="d" d="m395.4 378c-4.5 0-8.2-3.6-8.2-8.1 0-4.5 3.7-8.1 8.2-8.1 4.5 0 8.1 3.6 8.1 8.1 0 4.5-3.6 8.1-8.1 8.1z"/><path  d="m395.4 361.8v-2.3c-5.8 0-10.5 4.7-10.5 10.4 0 5.7 4.7 10.3 10.5 10.3 5.7 0 10.4-4.6 10.4-10.3 0-5.7-4.7-10.4-10.4-10.4v4.6c1.6 0 3 0.6 4.1 1.7 1.1 1 1.7 2.5 1.7 4.1 0 1.6-0.6 3-1.7 4.1-1.1 1.1-2.5 1.7-4.1 1.7-1.7 0-3.1-0.6-4.2-1.7-1-1.1-1.7-2.5-1.7-4.1 0-1.6 0.7-3.1 1.7-4.1 1.1-1.1 2.5-1.7 4.2-1.7z"/><g clip-path="url(#cp9)"><path class="d" d="m503.4 282.6l-108.2 25.3c-1.7 0.4-1.7 2.7-0.1 3.1l108.2 28q0.4 0.1 0.8 0l109.1-28c1.6-0.4 1.6-2.7-0.1-3.1l-108.9-25.3q-0.4 0-0.8 0z"/></g><g clip-path="url(#cp10)"><path  d="m503.4 282.6l-0.5-2.2-108.3 25.3c-0.9 0.2-1.7 0.7-2.2 1.5-0.5 0.7-0.8 1.5-0.8 2.3 0 0.7 0.3 1.5 0.8 2.2 0.5 0.7 1.2 1.3 2.1 1.5l108.2 28q0.5 0.1 1 0.1 0.5 0 1-0.1l109.1-28c0.8-0.2 1.6-0.8 2.1-1.5 0.5-0.7 0.8-1.5 0.8-2.2 0-0.8-0.3-1.6-0.8-2.4-0.5-0.7-1.3-1.2-2.2-1.4l-109-25.3q-0.5-0.1-0.9-0.1-0.4 0-0.9 0.1l0.5 2.2 0.5 2.3-0.1-0.7v0.7h0.1l-0.1-0.7v0.7-0.7l-0.2 0.7h0.2v-0.7l-0.2 0.7 109 25.2 0.2-0.7-0.6 0.4c0.1 0.2 0.3 0.3 0.4 0.3l0.2-0.7-0.6 0.4 0.6-0.3h-0.7q0 0.1 0.1 0.3l0.6-0.3h-0.7 0.7l-0.6-0.4q-0.1 0.2-0.1 0.4h0.7l-0.6-0.4 0.6 0.4-0.2-0.7c-0.1 0-0.3 0.1-0.4 0.3l0.6 0.4-0.2-0.7-109 28 0.1 0.6v-0.6h-0.1l0.1 0.6v-0.6 0.7l0.2-0.7h-0.2v0.7l0.2-0.7-108.2-28-0.2 0.7 0.6-0.4c-0.1-0.2-0.3-0.3-0.4-0.3l-0.2 0.7 0.6-0.4-0.6 0.4h0.7q0-0.2-0.1-0.4l-0.6 0.4h0.7-0.7l0.6 0.3q0.1-0.2 0.1-0.3h-0.7l0.6 0.3-0.6-0.4 0.2 0.7c0.1 0 0.3-0.1 0.4-0.3l-0.6-0.4 0.2 0.7 108.2-25.2z"/></g><g clip-path="url(#cp11)"><g clip-path="url(#cp12)"><path class="d" d="m429.7 322.3h148.2v61h-148.2z"/></g></g><path  d="m580.2 385.6h-152.7v-63.9l2.2 0.6v61h148.2v-36.2q1.1-0.2 2.3-0.4z"/><path class="d" d="m461 325.7l-62.7-16.2 36.4-8.5q1.6 2.1 3.3 4 2.8 3.3 5.8 6.4 1.8 1.7 3.5 3.4l0.3 0.2q3.9 3.6 8.1 6.8 0.4 0.4 0.9 0.7 1.6 1.2 3.2 2.3 0.6 0.5 1.2 0.9z"/><path  d="m475.5 334.2l-45.8-11.9-2.2-0.6v-2.3l-32.4-8.4c-1.6-0.4-1.6-2.7 0.1-3.1l38-8.9q0.8 1 1.5 2l-36.4 8.5 62.7 16.2 0.3 0.2q1.3 0.9 2.7 1.8 0.9 0.6 1.9 1.1 4.7 2.9 9.6 5.4z"/><path fill-rule="evenodd" d="m278.9 593.9q5.5 0 10.1 1.6 4.5 1.6 7.7 4.6 3.2 3 4.9 7.3 1.8 4.3 1.8 9.4 0 5.1-1.8 9.4-1.7 4.2-4.9 7.3-3.2 2.9-7.7 4.6-4.6 1.6-10.1 1.6h-14.5v31h-11.8v-76.8zm-14.5 10.1v25.6h14.5q5.8 0 9.2-3.5 3.4-3.6 3.4-9.3 0-5.8-3.4-9.3-3.4-3.5-9.2-3.5z"/><path  d="m316.4 592.8h11.8v19.2q0 1.5-0.1 3.2-0.1 1.8-0.3 3.4-0.2 1.5-0.2 2.5-0.1 1-0.1 1h1q1.2-5.3 5.3-8.2 4.1-3 10.4-3 4.3 0 7.9 1.5 3.6 1.5 6.1 4.3 2.5 2.8 3.9 6.7 1.4 3.8 1.4 8.6v38.7h-11.7v-37q0-6-3.1-9.4-3.2-3.4-8.6-3.4-5.6 0.1-8.8 3.6-3.1 3.5-3.1 9.6v36.6h-11.8z"/><path fill-rule="evenodd" d="m380.5 670.7v-76.8h22.8q5.7 0 10.3 1.7 4.7 1.7 8 4.8 3.4 3.2 5.2 7.6 1.8 4.4 1.8 9.7v29q0 5.4-1.8 9.8-1.8 4.5-5.2 7.6-3.3 3.2-8 4.9-4.6 1.7-10.3 1.7zm22.7-10.7q6 0 9.8-3.6 3.7-3.6 3.7-9.7v-29q0-5.9-3.7-9.5-3.8-3.7-9.8-3.7h-11v55.5z"/><path  d="m532.6 592.8q10.7 0 17.2 5.8 6.5 5.9 7.4 16.1h-11.8q-0.5-5.5-3.9-8.5-3.3-3-8.9-3-6 0-9.4 3.4-3.5 3.5-3.5 9.4v32.5q0 6 3.4 9.4 3.3 3.4 9.4 3.4 5.7 0 9-3 3.4-3.1 3.9-8.4h11.8q-0.5 5-2.3 9.1-1.9 4-5.1 6.8-3.2 2.8-7.6 4.4-4.3 1.5-9.7 1.6-5.5-0.1-10.1-1.7-4.5-1.7-7.7-4.7-3.2-3.1-5-7.4-1.7-4.3-1.7-9.5v-32.5q0-5.3 1.7-9.6 1.8-4.2 5-7.3 3.2-3 7.7-4.7 4.6-1.6 10.2-1.6z"/><path  d="m598.4 592.8v59.7q0 3.5 2 5.5 1.9 2 5.3 2h17.5v10.7h-18q-8.7 0-13.6-4.9-4.9-4.8-4.9-13.3v-49.1h-19v-10.6z"/><path  d="m636.7 612h11.8v37.2q0 12.3 11.4 12.3 11.7 0 11.7-12.3v-37.2h11.6v37.2q0 10.8-6.1 16.7-6 5.9-17.2 5.9-11 0-17.1-6-6.1-5.9-6.1-16.6z"/><path fill-rule="evenodd" d="m700.5 592.8h11.7v18.4q0 1.5 0 3.5-0.1 1.9-0.2 3.6-0.2 1.9-0.3 3.8h0.9q1.1-5.3 5.3-8.2 4.2-3 10.7-3 4.5 0 8.2 1.6 3.7 1.6 6.3 4.6 2.6 3 4 7.2 1.5 4.2 1.5 9.6v14.7q0 5.3-1.5 9.7-1.4 4.2-4 7.2-2.6 3-6.3 4.7-3.7 1.6-8.2 1.6-6.5-0.1-10.7-3-4.2-2.9-5.3-8.3h-0.9v10.2h-11.2zm11.7 55.8q0 5.9 3.3 9.4 3.3 3.5 8.8 3.5 5.8 0 9.2-3.5 3.4-3.5 3.4-9.5v-14.4q0-6.1-3.4-9.6-3.4-3.4-9.2-3.4-5.5 0-8.8 3.5-3.3 3.5-3.3 9.5z"/><path  d="m199.5 305.2l-7.3-5.1 6-8.4-25.6-18.3-6 8.4-7.2-5.2 17.9-25.1 7.2 5.2-6 8.3 25.7 18.3 6-8.4 7.2 5.2z"/><path  d="m196.6 228.2l25.4-25.9 6.8 6.7-9.1 9.3 28.3 27.9-7.2 7.3-28.2-27.9-9.2 9.3z"/><path  d="m334.5 184.3q-3.3 1.7-6.5 2.2-3.2 0.5-6-0.3-2.9-0.8-5.2-2.8-2.2-2-3.9-5.2l-15.9-30.8 9.2-4.7 15.8 30.7q1.5 2.8 3.6 3.6 2.2 0.8 4.9-0.6 2.5-1.3 3.2-3.5 0.7-2.3-0.7-5.1l-15.9-30.8 9.1-4.7 15.9 30.8q1.6 3.3 1.9 6.3 0.3 3-0.7 5.8-1 2.7-3.2 5-2.2 2.3-5.6 4.1z"/><path  d="m354.7 120.4l11.8-3.9 20.6 27.7q0.6 0.8 1.2 2 0.7 1.2 1.2 2.2 0.5 1.3 1.1 2.7l0.9-0.3q0 0-0.5-1-0.5-1.2-1.3-2.8-0.8-1.7-1.7-3.8-0.8-1.9-1.4-3.7l-8.8-26.7 8.4-2.7 15.4 46.8-11.9 3.9-20.4-27.7q-0.7-0.9-1.4-2.1-0.7-1.2-1.1-2.3-0.5-1.2-1-2.5l-1 0.3q1 1.8 1.8 3.7 0.7 1.7 1.5 3.7 0.9 1.9 1.5 3.8l8.8 26.8-8.4 2.8z"/><path  d="m424.9 151.4l-1.4-8.8 10.2-1.7-5-31-10.2 1.6-1.4-8.8 30.5-4.9 1.4 8.8-10.2 1.6 5 31.1 10.2-1.6 1.4 8.8z"/><path  d="m475.6 95.2h10.4l8.3 35.5q0.3 1 0.4 2.2 0.2 1.3 0.3 2.3 0.1 1.2 0.3 2.4h0.4q0.1-1.2 0.4-2.4 0.1-1 0.3-2.3 0.2-1.2 0.4-2.2l8.1-35.5h10.4l-13.1 49.3h-13.8z"/><path  d="m536.8 146.5l7.7-48.6 30.8 4.9-1.4 8.8-20.6-3.3-1.7 10.5 18.3 2.9-1.4 8.8-18.3-2.9-1.9 11.8 20.7 3.3-1.5 8.8z"/><path fill-rule="evenodd" d="m606.1 110.2l15.6 5.1q3.8 1.3 6.5 3.3 2.7 2 4.3 4.6 1.6 2.6 1.9 5.6 0.3 3-0.8 6.3-1.5 4.6-4.8 7.1-3.3 2.5-7.7 2.9l2.5 22.8-10.4-3.5-2-20.8-4.8-1.5-6 18.2-9.7-3.2zm2.8 24.3l5.9 1.9q3.2 1.1 5.6 0 2.4-1.1 3.3-4.1 1-3-0.3-5.4-1.2-2.4-4.3-3.5l-6-1.9z"/><path  d="m657.3 184.3q-3.4-1.8-5.8-4.1-2.3-2.3-3.5-5-1.2-2.6-1.2-5.5 0.1-2.9 1.4-5.8l9.1 4.7q-1.8 4.8 4.2 7.9 3.1 1.6 5.3 1.1 2.3-0.5 3.4-2.7 1-2 0.5-4-0.5-2-2.5-3.7l-4.1-3.4q-5.2-4.4-6.6-9.4-1.2-5 1.5-10.4 1.5-2.8 3.7-4.6 2.3-1.7 5.1-2.4 2.8-0.6 6-0.1 3.2 0.5 6.7 2.3 6.5 3.3 8.8 8.6 2.2 5.3-0.3 11.2l-9.1-4.7q0.8-2.1-0.2-4.1-1-1.9-3.5-3.2-2.7-1.3-4.9-0.8-2.1 0.5-3 2.4-0.9 1.7-0.5 3.6 0.5 1.8 2.5 3.4l4.3 3.6q5.2 4.4 6.5 9.5 1.3 5-1.5 10.5-1.5 2.9-3.8 4.7-2.4 1.8-5.3 2.5-3 0.7-6.3 0.2-3.4-0.5-6.9-2.3z"/><path  d="m692.7 204l5.3-7.1 8.3 6.1 18.6-25.4-8.3-6.1 5.3-7.2 24.8 18.3-5.2 7.2-8.3-6.1-18.7 25.3 8.3 6.1-5.3 7.2z"/><path  d="m769.8 202.3l25.4 25.8-6.8 6.7-9.1-9.2-28.3 27.9-7.2-7.3 28.3-27.9-9.1-9.3z"/><path  d="m812.2 248.1l6.2 8.8-10 16.1q-0.6 1.1-1.4 2-0.7 0.8-1.3 1.4-0.8 0.7-1.5 1.3l0.3 0.4q0.7-0.5 1.7-0.9 0.8-0.5 1.8-0.9 1.1-0.4 2.3-0.7l18.3-4.4 6.2 8.7-34.5 7-14 9.9-5.9-8.3 14-10z"/><path fill-rule="evenodd" d="m193.4 702.6q2.9-2 5.9-2.6 3-0.7 5.9 0 3 0.6 5.7 2.6 2.7 2 5 5.2 2.3 3.2 3.2 6.4 1 3.2 0.6 6.2-0.3 3.1-1.9 5.7-1.5 2.6-4.4 4.6l-16.2 11.6q-2.8 2-5.9 2.5-3 0.7-6 0-2.9-0.7-5.7-2.6-2.7-1.9-4.9-5.1-2.3-3.2-3.3-6.4-1-3.2-0.6-6.2 0.3-3 1.9-5.7 1.6-2.6 4.5-4.7zm-10.3 20q-2.4 1.7-2.7 4.2-0.3 2.6 1.5 5.2 1.9 2.6 4.4 3.1 2.5 0.5 4.9-1.2l16.2-11.5q2.4-1.7 2.7-4.2 0.4-2.6-1.4-5.2-1.9-2.6-4.4-3.2-2.6-0.5-5 1.2z"/><path  d="m240 739.5l22.5 22.9-6.8 6.7-15.5-15.7-7.5 7.3 14.3 14.5-6.9 6.7-14.1-14.4-14 13.8-7.2-7.3z"/><path  d="m340.5 815.9q3.5 1.7 5.8 4.2 2.2 2.3 3.3 5.2 1.1 2.8 0.9 5.9-0.2 3.1-1.8 6.1l-9.1-4.7q1.3-2.5 0.4-4.8-0.9-2.3-3.7-3.7-2.8-1.5-5.3-0.9-2.4 0.6-3.7 3.1l-9.1 17.7q-1.3 2.6-0.5 4.9 0.9 2.2 3.8 3.7 2.9 1.5 5.3 0.8 2.4-0.7 3.7-3.1l9.1 4.7q-1.6 3.1-4 5.1-2.4 2-5.3 2.7-3 0.8-6.3 0.3-3.2-0.5-6.7-2.3-3.5-1.8-5.8-4.2-2.2-2.4-3.4-5.2-1.1-2.8-0.9-5.9 0.2-3.1 1.8-6.2l9.2-17.7q1.6-3.1 3.9-5 2.4-2 5.4-2.8 3-0.7 6.3-0.2 3.3 0.5 6.7 2.3z"/><path fill-rule="evenodd" d="m370.1 846.3q1.1-3.3 3.2-5.6 2-2.3 4.7-3.5 2.8-1.3 6.2-1.3 3.3 0 7.1 1.2 3.7 1.2 6.4 3.3 2.6 2 4.2 4.6 1.5 2.7 1.8 5.7 0.3 3-0.8 6.4l-6.2 18.9q-1.1 3.2-3.2 5.5-2.1 2.3-4.9 3.5-2.7 1.2-6.1 1.3-3.4 0.1-7-1.1-3.8-1.2-6.5-3.2-2.6-2-4.1-4.7-1.5-2.6-1.8-5.7-0.3-3.1 0.8-6.4zm3.5 22.1q-0.9 2.8 0.4 5.1 1.2 2.2 4.2 3.2 3.1 1 5.4-0.1 2.3-1 3.3-3.8l6.2-18.9q0.9-2.8-0.3-5.1-1.3-2.3-4.3-3.3-3.1-0.9-5.4 0.1-2.3 1.1-3.3 3.9z"/><path fill-rule="evenodd" d="m446 851q3.9 0.6 6.9 2.2 3.1 1.5 5 3.9 1.9 2.4 2.6 5.4 0.8 2.9 0.3 6.5-0.6 3.4-2.3 6.1-1.7 2.6-4.2 4.2-2.6 1.6-5.9 2.2-3.4 0.5-7.3-0.1l-6.9-1.1-2.9 18.3-10.1-1.7 7.8-48.7zm-8.2 7.3l-2.2 13.6 6.9 1.1q3.3 0.6 5.5-1 2.1-1.6 2.6-4.6 0.5-3.1-1.1-5.2-1.5-2.2-4.9-2.7z"/><path  d="m485.1 904.5v-49.3h31.2v8.9h-20.9v10.7h18.5v8.9h-18.5v11.9h20.9v8.9z"/><path  d="m539.1 853.5l12.3-2 16 30.5q0.5 0.9 0.9 2.2 0.4 1.3 0.7 2.4 0.4 1.4 0.7 2.9l1-0.2q0 0-0.4-1.2-0.3-1.2-0.8-3-0.5-1.7-1.1-3.8-0.5-2.2-0.8-4l-4.4-27.7 8.7-1.4 7.8 48.7-12.4 2-15.7-30.6q-0.6-1.1-1.1-2.3-0.5-1.3-0.8-2.5-0.3-1.3-0.6-2.6l-0.9 0.1q0.6 2 1.2 4.1 0.3 1.7 0.8 3.8 0.6 2 0.9 4l4.5 27.9-8.7 1.3z"/><path  d="m603.8 839.6l5.9 17.9 11.1-3.6-5.9-18 9.8-3.2 15.3 46.9-9.7 3.1-6.5-19.7-11.1 3.7 6.5 19.7-9.7 3.2-15.4-46.8z"/><path fill-rule="evenodd" d="m665.4 869.2l-10.8-49.8 12.1-6.3 34 37.9-9.2 4.8-7.5-8.9-12.2 6.3 2.8 11.3zm4.4-24l8.8-4.6-10.7-12.7q-0.7-0.8-1.4-1.8-0.8-1-1.4-1.9-0.7-0.9-1.3-2l-0.4 0.2q0.5 1.2 0.8 2.3 0.4 1 0.8 2.2 0.4 1.2 0.6 2.2z"/><path  d="m720 805.1l14.5-10.7 7.5 10.3q2 2.8 2.8 5.8 0.7 3 0 6-0.6 3-2.5 5.7-1.9 2.8-5.1 5.1-3.1 2.3-6.4 3.3-3.1 1-6.2 0.7-3-0.2-5.6-1.8-2.7-1.6-4.7-4.4l-11.8-16q-2.1-2.7-2.7-5.7-0.7-2.9 0-5.9 0.6-2.9 2.5-5.6 1.9-2.8 5.1-5.1 2.9-2.2 5.9-3.2 3-1 6-0.8 2.9 0.2 5.6 1.5 2.7 1.4 4.9 3.8l-8.3 6.1q-1.6-1.8-3.9-1.8-2.3 0.1-4.7 1.8-2.6 1.9-3.1 4.3-0.6 2.5 0.9 4.5l11.8 16q1.7 2.4 4.3 2.7 2.5 0.3 5.1-1.6 2.6-1.9 3.1-4.5 0.4-2.5-1.3-4.9l-2.4-3.2-6.1 4.6z"/><path  d="m774.1 796l-35.2-34.5 21.8-22.3 6.4 6.3-14.6 14.9 7.6 7.4 13-13.1 6.3 6.2-13 13.2 8.5 8.3 14.6-14.9 6.4 6.3z"/><path  d="m775.5 721.7l7.2-10.2 33 10.1q0.9 0.2 2.2 0.9 1.2 0.5 2.2 1.1 1.2 0.7 2.5 1.5l0.6-0.8q0 0-1.1-0.6-1.1-0.5-2.7-1.4-1.6-0.9-3.5-2-1.9-1.1-3.4-2.1l-22.9-16.4 5.1-7.1 40.2 28.5-7.3 10.2-32.8-10.2q-1.2-0.4-2.4-0.9-1.2-0.5-2.3-1.1-1.2-0.7-2.3-1.5l-0.6 0.8q1.9 1 3.7 2 1.6 1 3.4 2 1.8 1.1 3.4 2.3l23 16.3-5.1 7.2z"/></svg>